<svg width="26.216797" height="21.461670" viewBox="0 0 26.2168 21.4617" fill="none" xmlns="http://www.w3.org/2000/svg" xmlns:xlink="http://www.w3.org/1999/xlink">
	<desc>
			Created with Pixso.
	</desc>
	<defs/>
	<path id="Path 3" d="M1.02002 12.0898L1 12.1099C0.439941 12.1099 0 11.6699 0 11.1099C0 10.5499 0.439941 10.1099 1 10.1099L1.02002 10.1299L1.02002 12.0898ZM23.0388 10.1299L23.0588 10.1099C23.6188 10.1099 24.0588 10.5499 24.0588 11.1099C24.0588 11.6699 23.6188 12.1099 23.0588 12.1099L23.0388 12.0898L23.0388 10.1299Z" fill="#D8D8D8" fill-opacity="0" fill-rule="nonzero"/>
	<path id="Path 3" d="M1 11.1099L23.0588 11.1099" stroke="#FFFFFF" stroke-opacity="1.000000" stroke-width="2.000000" stroke-linejoin="round" stroke-linecap="round"/>
	<path id="Path" d="M14.6649 1.71643L14.6366 1.71667C14.2375 1.32385 14.2328 0.701538 14.6256 0.30249C15.0186 -0.0965576 15.6407 -0.101318 16.0398 0.291626L16.04 0.319824L14.6649 1.71643ZM16.04 21.1418L16.0398 21.1702C15.6407 21.563 15.0186 21.5582 14.6256 21.1592C14.2328 20.7601 14.2375 20.1379 14.6366 19.745L14.6649 19.7452L16.04 21.1418Z" fill="#D8D8D8" fill-opacity="0" fill-rule="nonzero"/>
	<path id="Path" d="M15.3381 1.00415L25.2169 10.7308L15.3381 20.4575" stroke="#FFFFFF" stroke-opacity="1.000000" stroke-width="2.000000" stroke-linejoin="round" stroke-linecap="round"/>
</svg>
